<mxfile host="app.diagrams.net" modified="2023-10-11T02:56:00.142Z" agent="Mozilla/5.0 (Windows NT 10.0; Win64; x64) AppleWebKit/537.36 (KHTML, like Gecko) Chrome/117.0.0.0 Safari/537.36" etag="QHxeXguOfvIjyvklreW3" version="22.0.4" type="github">
  <diagram name="Page-1" id="f1b7ffb7-ca1e-a977-7cf5-a751b3c06c05">
    <mxGraphModel dx="2785" dy="1425" grid="1" gridSize="10" guides="1" tooltips="1" connect="1" arrows="1" fold="1" page="1" pageScale="1" pageWidth="10027" pageHeight="10069" background="none" math="0" shadow="0">
      <root>
        <mxCell id="0" />
        <mxCell id="1" parent="0" />
        <mxCell id="OILeoOBpmjsSUQbVQ7sN-103" value="" style="group" vertex="1" connectable="0" parent="1">
          <mxGeometry x="740" y="400" width="1050" height="480" as="geometry" />
        </mxCell>
        <mxCell id="OILeoOBpmjsSUQbVQ7sN-61" value="Home" style="swimlane;whiteSpace=wrap;html=1;" vertex="1" parent="OILeoOBpmjsSUQbVQ7sN-103">
          <mxGeometry x="430" width="200" height="200" as="geometry">
            <mxRectangle x="290" y="350" width="70" height="30" as="alternateBounds" />
          </mxGeometry>
        </mxCell>
        <mxCell id="OILeoOBpmjsSUQbVQ7sN-62" value="Recommended for You" style="swimlane;whiteSpace=wrap;html=1;" vertex="1" parent="OILeoOBpmjsSUQbVQ7sN-103">
          <mxGeometry x="290" y="280" width="200" height="200" as="geometry">
            <mxRectangle x="290" y="350" width="70" height="30" as="alternateBounds" />
          </mxGeometry>
        </mxCell>
        <mxCell id="OILeoOBpmjsSUQbVQ7sN-64" value="Latest Updates" style="swimlane;whiteSpace=wrap;html=1;" vertex="1" parent="OILeoOBpmjsSUQbVQ7sN-103">
          <mxGeometry x="570" y="280" width="200" height="200" as="geometry">
            <mxRectangle x="290" y="350" width="70" height="30" as="alternateBounds" />
          </mxGeometry>
        </mxCell>
        <mxCell id="OILeoOBpmjsSUQbVQ7sN-68" value="" style="endArrow=classic;html=1;rounded=0;exitX=0.5;exitY=1;exitDx=0;exitDy=0;entryX=0.5;entryY=0;entryDx=0;entryDy=0;" edge="1" parent="OILeoOBpmjsSUQbVQ7sN-103" source="OILeoOBpmjsSUQbVQ7sN-61" target="OILeoOBpmjsSUQbVQ7sN-64">
          <mxGeometry width="50" height="50" relative="1" as="geometry">
            <mxPoint x="330" y="340" as="sourcePoint" />
            <mxPoint x="560" y="170" as="targetPoint" />
          </mxGeometry>
        </mxCell>
        <mxCell id="OILeoOBpmjsSUQbVQ7sN-69" value="Featured Courses" style="swimlane;whiteSpace=wrap;html=1;startSize=23;" vertex="1" parent="OILeoOBpmjsSUQbVQ7sN-103">
          <mxGeometry y="280" width="200" height="200" as="geometry">
            <mxRectangle x="290" y="350" width="70" height="30" as="alternateBounds" />
          </mxGeometry>
        </mxCell>
        <mxCell id="OILeoOBpmjsSUQbVQ7sN-70" value="" style="endArrow=classic;html=1;rounded=0;exitX=0.5;exitY=1;exitDx=0;exitDy=0;entryX=0.5;entryY=0;entryDx=0;entryDy=0;" edge="1" target="OILeoOBpmjsSUQbVQ7sN-69" parent="OILeoOBpmjsSUQbVQ7sN-103" source="OILeoOBpmjsSUQbVQ7sN-61">
          <mxGeometry width="50" height="50" relative="1" as="geometry">
            <mxPoint x="-180" y="200" as="sourcePoint" />
            <mxPoint x="-10" y="170" as="targetPoint" />
          </mxGeometry>
        </mxCell>
        <mxCell id="OILeoOBpmjsSUQbVQ7sN-72" value="" style="endArrow=classic;html=1;rounded=0;entryX=0.5;entryY=0;entryDx=0;entryDy=0;" edge="1" target="OILeoOBpmjsSUQbVQ7sN-73" parent="OILeoOBpmjsSUQbVQ7sN-103">
          <mxGeometry width="50" height="50" relative="1" as="geometry">
            <mxPoint x="530" y="200" as="sourcePoint" />
            <mxPoint x="840" y="170" as="targetPoint" />
          </mxGeometry>
        </mxCell>
        <mxCell id="OILeoOBpmjsSUQbVQ7sN-73" value="User Dashboard (if logged in)" style="swimlane;whiteSpace=wrap;html=1;" vertex="1" parent="OILeoOBpmjsSUQbVQ7sN-103">
          <mxGeometry x="850" y="280" width="200" height="200" as="geometry">
            <mxRectangle x="1290" y="560" width="70" height="30" as="alternateBounds" />
          </mxGeometry>
        </mxCell>
        <mxCell id="OILeoOBpmjsSUQbVQ7sN-74" value="" style="endArrow=classic;html=1;rounded=0;exitX=0.5;exitY=1;exitDx=0;exitDy=0;entryX=0.5;entryY=0;entryDx=0;entryDy=0;" edge="1" parent="OILeoOBpmjsSUQbVQ7sN-103" source="OILeoOBpmjsSUQbVQ7sN-61" target="OILeoOBpmjsSUQbVQ7sN-62">
          <mxGeometry width="50" height="50" relative="1" as="geometry">
            <mxPoint x="540" y="210" as="sourcePoint" />
            <mxPoint x="680" y="290" as="targetPoint" />
          </mxGeometry>
        </mxCell>
        <mxCell id="OILeoOBpmjsSUQbVQ7sN-104" value="" style="group" vertex="1" connectable="0" parent="1">
          <mxGeometry x="1950" y="400" width="1050" height="480" as="geometry" />
        </mxCell>
        <mxCell id="OILeoOBpmjsSUQbVQ7sN-105" value="Home" style="swimlane;whiteSpace=wrap;html=1;" vertex="1" parent="OILeoOBpmjsSUQbVQ7sN-104">
          <mxGeometry x="430" width="200" height="200" as="geometry">
            <mxRectangle x="290" y="350" width="70" height="30" as="alternateBounds" />
          </mxGeometry>
        </mxCell>
        <mxCell id="OILeoOBpmjsSUQbVQ7sN-106" value="Recommended for You" style="swimlane;whiteSpace=wrap;html=1;" vertex="1" parent="OILeoOBpmjsSUQbVQ7sN-104">
          <mxGeometry x="290" y="280" width="200" height="200" as="geometry">
            <mxRectangle x="290" y="350" width="70" height="30" as="alternateBounds" />
          </mxGeometry>
        </mxCell>
        <mxCell id="OILeoOBpmjsSUQbVQ7sN-107" value="Latest Updates" style="swimlane;whiteSpace=wrap;html=1;" vertex="1" parent="OILeoOBpmjsSUQbVQ7sN-104">
          <mxGeometry x="570" y="280" width="200" height="200" as="geometry">
            <mxRectangle x="290" y="350" width="70" height="30" as="alternateBounds" />
          </mxGeometry>
        </mxCell>
        <mxCell id="OILeoOBpmjsSUQbVQ7sN-108" value="" style="endArrow=classic;html=1;rounded=0;exitX=0.5;exitY=1;exitDx=0;exitDy=0;entryX=0.5;entryY=0;entryDx=0;entryDy=0;" edge="1" parent="OILeoOBpmjsSUQbVQ7sN-104" source="OILeoOBpmjsSUQbVQ7sN-105" target="OILeoOBpmjsSUQbVQ7sN-107">
          <mxGeometry width="50" height="50" relative="1" as="geometry">
            <mxPoint x="330" y="340" as="sourcePoint" />
            <mxPoint x="560" y="170" as="targetPoint" />
          </mxGeometry>
        </mxCell>
        <mxCell id="OILeoOBpmjsSUQbVQ7sN-109" value="Featured Courses" style="swimlane;whiteSpace=wrap;html=1;startSize=23;" vertex="1" parent="OILeoOBpmjsSUQbVQ7sN-104">
          <mxGeometry y="280" width="200" height="200" as="geometry">
            <mxRectangle x="290" y="350" width="70" height="30" as="alternateBounds" />
          </mxGeometry>
        </mxCell>
        <mxCell id="OILeoOBpmjsSUQbVQ7sN-110" value="" style="endArrow=classic;html=1;rounded=0;exitX=0.5;exitY=1;exitDx=0;exitDy=0;entryX=0.5;entryY=0;entryDx=0;entryDy=0;" edge="1" parent="OILeoOBpmjsSUQbVQ7sN-104" source="OILeoOBpmjsSUQbVQ7sN-105" target="OILeoOBpmjsSUQbVQ7sN-109">
          <mxGeometry width="50" height="50" relative="1" as="geometry">
            <mxPoint x="-180" y="200" as="sourcePoint" />
            <mxPoint x="-10" y="170" as="targetPoint" />
          </mxGeometry>
        </mxCell>
        <mxCell id="OILeoOBpmjsSUQbVQ7sN-111" value="" style="endArrow=classic;html=1;rounded=0;entryX=0.5;entryY=0;entryDx=0;entryDy=0;" edge="1" parent="OILeoOBpmjsSUQbVQ7sN-104" target="OILeoOBpmjsSUQbVQ7sN-112">
          <mxGeometry width="50" height="50" relative="1" as="geometry">
            <mxPoint x="530" y="200" as="sourcePoint" />
            <mxPoint x="840" y="170" as="targetPoint" />
          </mxGeometry>
        </mxCell>
        <mxCell id="OILeoOBpmjsSUQbVQ7sN-112" value="User Dashboard (if logged in)" style="swimlane;whiteSpace=wrap;html=1;" vertex="1" parent="OILeoOBpmjsSUQbVQ7sN-104">
          <mxGeometry x="850" y="280" width="200" height="200" as="geometry">
            <mxRectangle x="1290" y="560" width="70" height="30" as="alternateBounds" />
          </mxGeometry>
        </mxCell>
        <mxCell id="OILeoOBpmjsSUQbVQ7sN-113" value="" style="endArrow=classic;html=1;rounded=0;exitX=0.5;exitY=1;exitDx=0;exitDy=0;entryX=0.5;entryY=0;entryDx=0;entryDy=0;" edge="1" parent="OILeoOBpmjsSUQbVQ7sN-104" source="OILeoOBpmjsSUQbVQ7sN-105" target="OILeoOBpmjsSUQbVQ7sN-106">
          <mxGeometry width="50" height="50" relative="1" as="geometry">
            <mxPoint x="540" y="210" as="sourcePoint" />
            <mxPoint x="680" y="290" as="targetPoint" />
          </mxGeometry>
        </mxCell>
      </root>
    </mxGraphModel>
  </diagram>
</mxfile>
